<?xml version="1.0" encoding="utf-8"?>
<!-- Generator: Adobe Illustrator 16.0.0, SVG Export Plug-In . SVG Version: 6.00 Build 0)  -->
<!DOCTYPE svg PUBLIC "-//W3C//DTD SVG 1.1//EN" "http://www.w3.org/Graphics/SVG/1.1/DTD/svg11.dtd">
<svg version="1.1" id="Layer_1" xmlns="http://www.w3.org/2000/svg" xmlns:xlink="http://www.w3.org/1999/xlink" x="0px" y="0px"
	 width="960px" height="960px" viewBox="0 0.25 960 960" enable-background="new 0 0.25 960 960" xml:space="preserve">
<g>
	<path d="M161.797,206.441c9.207,0,16.879-2.316,24.551-6.949c25.319,17.757,111.248,79.522,125.058,88.015
		c12.274,7.721,23.017,14.669,39.128,15.441c7.672,0,24.55,0.771,50.636,0.771c5.37,10.81,16.879,18.53,29.921,18.53
		c18.414,0,33.758-15.441,33.758-33.971c0-18.529-15.344-33.971-33.758-33.971c-16.112,0-29.921,11.581-32.99,27.022
		c-23.785,0-39.896,0-46.801-0.771c-9.973,0-16.112-3.86-27.62-11.581c-12.274-7.721-93.601-66.397-121.221-85.698
		c3.069-6.177,5.371-13.897,5.371-21.618c0-25.479-20.715-45.552-45.267-45.552c-24.551,0-45.266,20.846-45.266,45.552
		C117.297,186.367,136.478,206.441,161.797,206.441z M161.797,137.728c12.275,0,22.25,10.037,22.25,22.39s-9.974,22.39-22.25,22.39
		c-12.276,0-22.25-10.037-22.25-22.39S149.522,137.728,161.797,137.728z"/>
	<path d="M207.063,414.896h67.516c4.604,13.125,16.879,22.39,31.456,22.39c18.414,0,33.758-15.441,33.758-33.971
		c0-18.53-15.345-33.971-33.758-33.971c-14.577,0-26.853,9.265-31.456,22.39h-67.516c-5.371-19.302-23.017-33.97-43.732-33.97
		c-25.318,0-45.266,20.845-45.266,45.551s20.715,45.551,45.266,45.551C184.813,449.639,202.459,434.971,207.063,414.896z
		 M141.082,403.316c0-12.353,9.974-22.39,22.25-22.39s22.25,10.037,22.25,22.39s-9.974,22.39-22.25,22.39
		C151.056,426.478,141.082,415.669,141.082,403.316z"/>
	<path d="M217.038,536.882c20.715,0,39.128-14.67,43.732-33.971h13.81c4.604,13.125,16.879,22.389,31.456,22.389
		c18.414,0,33.758-15.44,33.758-33.971c0-18.529-15.345-33.97-33.758-33.97c-14.577,0-26.853,9.265-31.456,22.39h-13.81
		c-5.371-19.303-23.017-33.971-43.732-33.971c-25.318,0-45.266,20.845-45.266,45.551
		C171.771,516.035,191.718,536.882,217.038,536.882z M217.038,468.168c12.276,0,22.25,10.037,22.25,22.39
		c0,12.353-9.974,22.389-22.25,22.389c-12.275,0-22.249-10.036-22.249-22.389C194.789,478.205,204.761,468.168,217.038,468.168z"/>
	<path d="M173.305,714.456v-79.521c0-36.288,12.275-44.007,32.991-44.007c25.318,0,53.705,0,65.981,0.771
		c4.603,13.125,16.879,22.39,32.223,22.39c18.414,0,33.758-15.441,33.758-33.97c0-18.53-15.345-33.971-33.758-33.971
		c-14.577,0-26.853,9.264-31.456,22.388c-13.043,0-41.43-0.771-65.981-0.771c-56.774,0-56.774,50.184-56.774,67.169v78.75
		c-19.948,4.632-35.292,23.161-35.292,44.779c0,25.479,20.715,45.551,45.266,45.551s45.266-20.846,45.266-45.551
		C206.297,737.617,192.485,719.86,173.305,714.456z M160.263,780.853c-12.275,0-22.25-10.036-22.25-22.389s9.974-22.39,22.25-22.39
		c12.276,0,22.25,10.037,22.25,22.39C183.28,770.815,172.539,780.853,160.263,780.853z"/>
	<path d="M799.359,713.684v-78.75c0-16.215,0-67.169-56.006-67.169c-25.318,0-53.706,0-65.981,0.771
		c-4.604-13.124-16.88-22.388-31.456-22.388c-18.413,0-33.758,15.44-33.758,33.971c0,18.528,15.345,33.97,33.758,33.97
		c14.578,0,26.853-9.265,32.223-22.39c13.045,0,41.432-0.771,65.982-0.771c20.714,0,32.99,6.947,32.99,44.007v79.521
		c-19.182,5.404-32.99,23.161-32.99,44.007c0,25.479,20.714,45.551,45.267,45.551c24.552,0,45.266-20.845,45.266-45.551
		C834.652,736.845,819.308,718.316,799.359,713.684z M789.386,780.853c-12.276,0-22.249-10.036-22.249-22.389
		s9.973-22.39,22.249-22.39c12.275,0,22.249,10.037,22.249,22.39C811.636,770.815,801.661,780.853,789.386,780.853z"/>
	<path d="M648.983,437.287c13.043,0,24.551-7.72,29.921-18.529c13.044,0,36.061,0,56.007,0c52.172,0,52.172-46.324,52.172-61.765
		V186.367c18.414-4.632,32.225-21.618,32.225-41.691c0-23.162-19.181-42.463-42.198-42.463c-23.017,0-42.197,19.301-42.197,42.463
		c0,19.302,12.276,35.515,29.922,40.919v171.397c0,32.426-9.973,38.603-29.154,38.603s-39.896,0-52.938,0
		c-3.068-15.441-16.879-27.022-32.99-27.022c-18.413,0-33.758,15.441-33.758,33.97C614.459,421.845,629.803,437.287,648.983,437.287
		z M757.162,145.448c0-10.809,8.439-19.301,19.18-19.301c10.741,0,19.182,8.493,19.182,19.301c0,10.809-8.44,19.302-19.182,19.302
		C766.369,164.75,757.162,156.257,757.162,145.448z"/>
	<path d="M646.683,527.617c14.578,0,26.853-9.266,31.455-22.39h82.86c5.371,19.302,23.017,33.971,43.731,33.971
		c25.319,0,45.267-20.846,45.267-45.551c0-25.479-20.715-45.552-45.267-45.552c-20.715,0-39.128,14.669-43.731,33.971h-82.094
		c-4.603-13.125-16.878-22.391-31.455-22.391c-18.414,0-33.758,15.441-33.758,33.971
		C613.691,512.177,628.269,527.617,646.683,527.617z M805.497,471.256c12.275,0,22.249,10.037,22.249,22.389
		s-9.974,22.39-22.249,22.39s-22.249-10.037-22.249-22.39C782.48,481.293,793.222,471.256,805.497,471.256z"/>
	<path d="M414.214,346.184c-26.853,0-48.335,21.618-48.335,48.64v197.647c0,27.021,21.482,48.64,48.335,48.64h124.29
		c26.854,0,48.336-21.618,48.336-48.64V394.823c0-27.022-21.482-48.64-48.336-48.64H414.214z"/>
	<path d="M365.879,223.426c20.714,0,38.36-13.897,43.731-33.199h76.722c8.439,0,16.111,0,19.181,3.089
		c1.535,1.544,3.836,5.404,3.836,15.441c0,13.897,0,32.426-0.767,47.096c-12.275,5.404-21.483,16.985-21.483,31.654
		c0,18.529,15.344,33.971,33.759,33.971c18.413,0,33.757-15.441,33.757-33.971c0-15.441-9.973-27.794-23.783-32.426
		c0-14.669,0.768-32.426,0.768-46.324c0-14.669-3.069-25.478-9.975-31.654c-9.973-10.037-23.017-9.265-35.291-9.265h-75.955
		c-4.603-20.073-23.017-34.742-44.499-34.742c-25.319,0-45.266,20.846-45.266,45.551C320.612,202.58,340.56,223.426,365.879,223.426
		z M365.879,154.713c12.274,0,22.249,10.037,22.249,22.39s-9.975,22.39-22.249,22.39c-12.276,0-22.249-10.037-22.249-22.39
		C343.629,165.521,353.603,154.713,365.879,154.713z"/>
	<path d="M431.092,666.588c-13.81,0-26.085,8.493-30.689,20.074h-85.162c-16.112,0-49.87,0-49.87,45.551c0,5.404,0,10.81,0,15.441
		c-19.947,4.631-34.525,23.161-34.525,44.006c0,25.479,20.715,45.553,45.267,45.553c24.551,0,45.266-20.846,45.266-45.553
		c0-20.845-13.81-38.602-32.99-44.006c0-4.632-0.768-10.037-0.768-15.441c0-20.846,6.905-22.39,26.853-22.39h83.627
		c3.837,14.67,16.879,24.706,32.224,24.706c18.413,0,33.758-15.44,33.758-33.971C464.85,682.029,449.506,666.588,431.092,666.588z
		 M298.362,792.434c0,12.353-9.974,22.389-22.25,22.389c-12.275,0-22.25-10.036-22.25-22.389c0-12.354,9.974-22.39,22.25-22.39
		C288.389,770.044,298.362,779.309,298.362,792.434z"/>
	<path d="M648.983,747.654c0-4.632,0-10.037,0-15.441c0-45.551-33.758-45.551-49.869-45.551h-46.801
		c-5.371-12.353-16.879-20.074-30.69-20.074c-18.413,0-33.758,15.441-33.758,33.971c0,18.53,15.345,33.971,33.758,33.971
		c15.346,0,28.388-10.809,32.225-24.706h45.267c19.947,0,26.853,1.544,26.853,22.39c0,5.404,0,10.81-0.768,15.441
		c-19.181,5.404-32.99,23.161-32.99,44.006c0,25.479,20.715,45.553,45.266,45.553c25.318,0,45.267-20.846,45.267-45.553
		C683.509,770.815,668.932,752.287,648.983,747.654z M638.242,814.823c-12.275,0-22.249-10.036-22.249-22.389
		c0-12.354,9.974-23.162,22.249-23.162s22.25,10.036,22.25,22.39C660.492,804.015,650.518,814.823,638.242,814.823z"/>
</g>
</svg>
